{"asset":{"version":"2.0","generator":"babylon.js glTF exporter for   v"},"scene":0,"scenes":[{"nodes":[0,1],"extensions":{}}],"nodes":[{"mesh":0,"translation":[-8.0,0.106985353,8.0],"rotation":[0.0,0.0,0.0,1.0],"scale":[0.643538654,0.643538654,0.643538654],"name":"baseScene"},{"translation":[0.0,0.0,0.0],"rotation":[0.0,0.0,0.0,1.0],"scale":[1.0,1.0,1.0],"name":"Default light"}],"meshes":[{"primitives":[{"attributes":{"POSITION":1,"TANGENT":2,"NORMAL":3,"TEXCOORD_0":4},"indices":0,"mode":4,"material":0},{"attributes":{"POSITION":6,"TANGENT":7,"NORMAL":8,"TEXCOORD_0":9},"indices":5,"mode":4,"material":1},{"attributes":{"POSITION":11,"TANGENT":12,"NORMAL":13,"TEXCOORD_0":14},"indices":10,"mode":4,"material":2}],"name":"baseScene"}],"accessors":[{"bufferView":0,"componentType":5123,"count":6,"type":"SCALAR","name":"accessorIndices"},{"bufferView":1,"componentType":5126,"count":4,"max":[6.743333,-0.005433932,6.74333239],"min":[-6.74333239,-0.005433932,-6.743333],"type":"VEC3","name":"accessorPositions"},{"bufferView":2,"componentType":5126,"count":4,"type":"VEC4","name":"accessorTangents"},{"bufferView":1,"byteOffset":48,"componentType":5126,"count":4,"type":"VEC3","name":"accessorNormals"},{"bufferView":3,"componentType":5126,"count":4,"type":"VEC2","name":"accessorUVs"},{"bufferView":0,"byteOffset":12,"componentType":5123,"count":48,"type":"SCALAR","name":"accessorIndices"},{"bufferView":1,"byteOffset":96,"componentType":5126,"count":24,"max":[12.4310751,-0.005433929,12.431077],"min":[-12.431077,-0.1662584,-12.4310751],"type":"VEC3","name":"accessorPositions"},{"bufferView":2,"byteOffset":64,"componentType":5126,"count":24,"type":"VEC4","name":"accessorTangents"},{"bufferView":1,"byteOffset":384,"componentType":5126,"count":24,"type":"VEC3","name":"accessorNormals"},{"bufferView":3,"byteOffset":32,"componentType":5126,"count":24,"type":"VEC2","name":"accessorUVs"},{"bufferView":0,"byteOffset":108,"componentType":5123,"count":24,"type":"SCALAR","name":"accessorIndices"},{"bufferView":1,"byteOffset":672,"componentType":5126,"count":34,"max":[12.4310751,-0.005433929,12.431077],"min":[-12.431077,-0.1662584,-12.4310751],"type":"VEC3","name":"accessorPositions"},{"bufferView":2,"byteOffset":448,"componentType":5126,"count":34,"type":"VEC4","name":"accessorTangents"},{"bufferView":1,"byteOffset":1080,"componentType":5126,"count":34,"type":"VEC3","name":"accessorNormals"},{"bufferView":3,"byteOffset":224,"componentType":5126,"count":34,"type":"VEC2","name":"accessorUVs"}],"bufferViews":[{"buffer":0,"byteLength":156,"name":"bufferViewScalar"},{"buffer":0,"byteOffset":156,"byteLength":1488,"byteStride":12,"name":"bufferViewFloatVec3"},{"buffer":0,"byteOffset":1644,"byteLength":992,"byteStride":16,"name":"bufferViewFloatVec4"},{"buffer":0,"byteOffset":2636,"byteLength":496,"byteStride":8,"name":"bufferViewFloatVec2"}],"buffers":[{"uri":"baseScene.bin","byteLength":3132}],"materials":[{"pbrMetallicRoughness":{"baseColorFactor":[0.196,0.196,0.196,1.0],"metallicFactor":0.0,"roughnessFactor":1.0},"emissiveFactor":[0.0,0.0,0.0],"alphaMode":"OPAQUE","name":"grey_MTL"},{"pbrMetallicRoughness":{"baseColorFactor":[0.0,0.240383327,0.25,1.0],"metallicFactor":0.5,"roughnessFactor":1.0},"emissiveFactor":[0.0,0.5,0.5],"alphaMode":"OPAQUE","name":"blueGlow_MTL"},{"pbrMetallicRoughness":{"baseColorFactor":[0.7991065,0.7991065,0.7991065,1.0],"metallicFactor":0.0,"roughnessFactor":1.0},"emissiveFactor":[0.0,0.0,0.0],"alphaMode":"OPAQUE","name":"white_MTL"}]}