{"asset":{"version":"2.0","generator":"babylon.js glTF exporter for   v"},"scene":0,"scenes":[{"nodes":[0,4],"extensions":{}}],"nodes":[{"children":[1,2,3],"translation":[0.0,0.0,0.0],"rotation":[0.0,0.0,0.0,1.0],"scale":[1.0,1.0,1.0],"name":"ringAnim_GRP"},{"mesh":0,"translation":[0.0,0.0,0.0],"rotation":[0.0,0.0,0.0,1.0],"scale":[1.0,1.0,1.0],"name":"ring1"},{"mesh":1,"translation":[0.0,0.1046427,0.0],"rotation":[0.0,0.0,0.0,1.0],"scale":[1.1,1.1,1.1],"name":"ring2"},{"mesh":2,"translation":[0.0,0.218109623,0.0],"rotation":[0.0,0.0,0.0,1.0],"scale":[0.6009766,0.6009766,0.6009766],"name":"ring5"},{"translation":[0.0,0.0,0.0],"rotation":[0.0,0.0,0.0,1.0],"scale":[1.0,1.0,1.0],"name":"Default light"}],"meshes":[{"primitives":[{"attributes":{"POSITION":1,"TANGENT":2,"NORMAL":3,"TEXCOORD_0":4},"indices":0,"mode":4,"material":0}],"name":"ring1"},{"primitives":[{"attributes":{"POSITION":6,"TANGENT":7,"NORMAL":8,"TEXCOORD_0":9},"indices":5,"mode":4,"material":0}],"name":"ring2"},{"primitives":[{"attributes":{"POSITION":11,"TANGENT":12,"NORMAL":13,"TEXCOORD_0":14},"indices":10,"mode":4,"material":0}],"name":"ring5"}],"accessors":[{"bufferView":0,"componentType":5123,"count":504,"type":"SCALAR","name":"accessorIndices"},{"bufferView":1,"componentType":5126,"count":104,"max":[0.30783695,0.0197619759,0.30783695],"min":[-0.30783695,-0.0197619759,-0.30783695],"type":"VEC3","name":"accessorPositions"},{"bufferView":2,"componentType":5126,"count":104,"type":"VEC4","name":"accessorTangents"},{"bufferView":1,"byteOffset":1248,"componentType":5126,"count":104,"type":"VEC3","name":"accessorNormals"},{"bufferView":3,"componentType":5126,"count":104,"type":"VEC2","name":"accessorUVs"},{"bufferView":0,"byteOffset":1008,"componentType":5123,"count":504,"type":"SCALAR","name":"accessorIndices"},{"bufferView":1,"byteOffset":2496,"componentType":5126,"count":104,"max":[0.30783695,0.0197619759,0.30783695],"min":[-0.30783695,-0.0197619759,-0.30783695],"type":"VEC3","name":"accessorPositions"},{"bufferView":2,"byteOffset":1664,"componentType":5126,"count":104,"type":"VEC4","name":"accessorTangents"},{"bufferView":1,"byteOffset":3744,"componentType":5126,"count":104,"type":"VEC3","name":"accessorNormals"},{"bufferView":3,"byteOffset":832,"componentType":5126,"count":104,"type":"VEC2","name":"accessorUVs"},{"bufferView":0,"byteOffset":2016,"componentType":5123,"count":504,"type":"SCALAR","name":"accessorIndices"},{"bufferView":1,"byteOffset":4992,"componentType":5126,"count":104,"max":[0.30783695,0.0197619759,0.30783695],"min":[-0.30783695,-0.0197619759,-0.30783695],"type":"VEC3","name":"accessorPositions"},{"bufferView":2,"byteOffset":3328,"componentType":5126,"count":104,"type":"VEC4","name":"accessorTangents"},{"bufferView":1,"byteOffset":6240,"componentType":5126,"count":104,"type":"VEC3","name":"accessorNormals"},{"bufferView":3,"byteOffset":1664,"componentType":5126,"count":104,"type":"VEC2","name":"accessorUVs"},{"bufferView":4,"componentType":5126,"count":60,"max":[1.9666667],"min":[0.0],"type":"SCALAR","name":"accessorAnimationInput"},{"bufferView":5,"componentType":5126,"count":60,"type":"VEC3","name":"accessorAnimationScales"},{"bufferView":4,"byteOffset":240,"componentType":5126,"count":59,"max":[1.9666667],"min":[0.0],"type":"SCALAR","name":"accessorAnimationInput"},{"bufferView":5,"byteOffset":720,"componentType":5126,"count":59,"type":"VEC3","name":"accessorAnimationPositions"},{"bufferView":4,"byteOffset":476,"componentType":5126,"count":60,"max":[1.9666667],"min":[0.0],"type":"SCALAR","name":"accessorAnimationInput"},{"bufferView":5,"byteOffset":1428,"componentType":5126,"count":60,"type":"VEC3","name":"accessorAnimationScales"},{"bufferView":4,"byteOffset":716,"componentType":5126,"count":60,"max":[1.9666667],"min":[0.0],"type":"SCALAR","name":"accessorAnimationInput"},{"bufferView":5,"byteOffset":2148,"componentType":5126,"count":60,"type":"VEC3","name":"accessorAnimationPositions"},{"bufferView":4,"byteOffset":956,"componentType":5126,"count":60,"max":[1.9666667],"min":[0.0],"type":"SCALAR","name":"accessorAnimationInput"},{"bufferView":5,"byteOffset":2868,"componentType":5126,"count":60,"type":"VEC3","name":"accessorAnimationScales"},{"bufferView":4,"byteOffset":1196,"componentType":5126,"count":60,"max":[1.9666667],"min":[0.0],"type":"SCALAR","name":"accessorAnimationInput"},{"bufferView":5,"byteOffset":3588,"componentType":5126,"count":60,"type":"VEC3","name":"accessorAnimationPositions"}],"bufferViews":[{"buffer":0,"byteLength":3024,"name":"bufferViewScalar"},{"buffer":0,"byteOffset":3024,"byteLength":7488,"byteStride":12,"name":"bufferViewFloatVec3"},{"buffer":0,"byteOffset":10512,"byteLength":4992,"byteStride":16,"name":"bufferViewFloatVec4"},{"buffer":0,"byteOffset":15504,"byteLength":2496,"byteStride":8,"name":"bufferViewFloatVec2"},{"buffer":0,"byteOffset":18000,"byteLength":1436,"name":"bufferViewAnimationFloatScalar"},{"buffer":0,"byteOffset":19436,"byteLength":4308,"name":"bufferViewAnimationFloatVec3"}],"buffers":[{"uri":"rings.bin","byteLength":23744}],"materials":[{"pbrMetallicRoughness":{"baseColorFactor":[0.144130886,0.7454176,0.7991065,1.0],"metallicFactor":0.0,"roughnessFactor":1.0},"emissiveFactor":[0.022863172,0.118243992,0.126760557],"alphaMode":"OPAQUE","name":"glow_MTL"}],"animations":[{"channels":[{"sampler":0,"target":{"node":1,"path":"scale"}},{"sampler":1,"target":{"node":1,"path":"translation"}},{"sampler":2,"target":{"node":2,"path":"scale"}},{"sampler":3,"target":{"node":2,"path":"translation"}},{"sampler":4,"target":{"node":3,"path":"scale"}},{"sampler":5,"target":{"node":3,"path":"translation"}}],"samplers":[{"input":15,"interpolation":"LINEAR","output":16},{"input":17,"interpolation":"LINEAR","output":18},{"input":19,"interpolation":"LINEAR","output":20},{"input":21,"interpolation":"LINEAR","output":22},{"input":23,"interpolation":"LINEAR","output":24},{"input":25,"interpolation":"LINEAR","output":26}],"name":"Rings"}]}